<svg xmlns="http://www.w3.org/2000/svg" xmlns:xlink="http://www.w3.org/1999/xlink" width="388.267" height="359.658" viewBox="0 0 388.267 359.658"><defs><linearGradient id="a" x1="0.5" y1="1" x2="0.5" gradientUnits="objectBoundingBox"><stop offset="0" stop-color="gray" stop-opacity="0.251"/><stop offset="0.54" stop-color="gray" stop-opacity="0.122"/><stop offset="1" stop-color="gray" stop-opacity="0.102"/></linearGradient></defs><g transform="translate(0.003 0)"><path d="M142.182,69.931c13.173-15.945,33.852-19.191,52.673-17.922C253.974,56,307.339,94.722,353.5,138.527c16.711,15.859,33.163,32.964,44.021,54.788,22.084,44.456,15.531,106.044-15.172,142.666-10.447,12.463-23.112,22.013-36.114,30.485-23.116,15.055-48.053,27.139-74.294,30.58-18.71,2.452-37.636.452-56.252-2.962-51.968-9.564-102.978-30.706-145.735-66.894-18.761-15.868-36.436-35.6-44.165-61.281s-2.782-58.2,16.365-73.4c7.92-6.286,17.386-9.121,26.658-11.79,13.646-3.92,27.508-7.789,39.823-15.764,12.719-8.236,27.777-24.167,25.26-42.4C131.193,103.008,129.026,85.826,142.182,69.931Z" transform="translate(-22.3 -51.76)" fill="#221b97" opacity="0.1"/><path d="M279,497.191s3.485-3.355,7.09-1.282c0,0-1.008,2.881-5.5,2.845Z" transform="translate(-192.742 -294.979)" fill="#221b97"/><path d="M277.421,500s-.931,5.622,1.905,9.271c0,0,1.573-2.38-.215-7.916Z" transform="translate(-191.597 -297.593)" fill="#221b97"/><path d="M264,484.093s.128-4.746,8.125-3.585a5.414,5.414,0,0,1-2.624,4.642C266.752,486.74,265.435,485.6,264,484.093Z" transform="translate(-182.782 -286.803)" fill="#221b97"/><path d="M259.59,488.65s-3.323,1.626-.037,11.5c0,0,2.2-.781,2.477-4.786S261.092,490.032,259.59,488.65Z" transform="translate(-178.866 -291.368)" fill="#221b97"/><path d="M248.533,465.311s-.672-7.767,7.473-7.388c0,0,.776,7.022-5.985,9.185Z" transform="translate(-172.504 -274.509)" fill="#221b97"/><path d="M231.83,446.906s.864-8.882,9.073-6.674c0,0,.249,7.631-7.675,8.711Z" transform="translate(-161.423 -264.62)" fill="#221b97"/><path d="M219.38,427.39s1.62-8.711,9.745-6.534c0,0-1.68,7.835-9.164,8.1Z" transform="translate(-153.156 -253.996)" fill="#221b97"/><path d="M207.53,407.884s1.569-9.031,9.409-6.737c0,0-2.352,8.611-8.861,8.232Z" transform="translate(-145.288 -243.173)" fill="#221b97"/><path d="M199.66,386.948s1.092-10.986,8.4-8.945c0,0-1.821,10.038-7.83,10.5Z" transform="translate(-140.063 -230.546)" fill="#221b97"/><path d="M192.09,365.215s1.368-11.086,8.787-8.263c0,0-2.581,10.544-8.233,9.758Z" transform="translate(-135.037 -218.887)" fill="#221b97"/><path d="M187.13,341.481s2.352-11.135,8.038-11.131c0,0-2.4,11.741-7.5,13.312Z" transform="translate(-131.743 -204.55)" fill="#221b97"/><path d="M183.71,319.227s2.53-13.393,7.174-12.608c0,0-1.724,10.223-6.953,14.662Z" transform="translate(-129.473 -191.517)" fill="#221b97"/><path d="M181.28,295.769s2.409-11.172,6.953-11.849c0,0-1.546,10.95-6.771,14.712Z" transform="translate(-127.859 -179.086)" fill="#221b97"/><path d="M178.76,273.318s3.085-11.221,6.089-11.628c0,0-1.166,10.95-5.736,13.425Z" transform="translate(-126.186 -166.894)" fill="#221b97"/><path d="M176.83,250.163s1.747-12.106,4.725-13.253c0,0-.131,9.83-4.4,14.134Z" transform="translate(-124.905 -153.304)" fill="#221b97"/><path d="M172.4,224.947s1.925-9.672,4.318-11.257c0,0-.161,11.289-3.7,13.547Z" transform="translate(-121.963 -140.569)" fill="#221b97"/><path d="M167.074,200.034,166.15,183.2s4.906,12.49,1.344,19.792Z" transform="translate(-117.813 -123.847)" fill="#221b97"/><path d="M148.242,168.248s-3.626-12.142-4.432-12.788c0,0,6.653,7.677,6.317,17.963Z" transform="translate(-102.98 -108.633)" fill="#221b97"/><path d="M237.352,474.188s-5.8-.718-5.309,10.219c0,0,5.242.872,6.684-8.268Z" transform="translate(-161.544 -283.431)" fill="#221b97"/><path d="M219.388,454.82s-6.66.312-5.8,11.488c0,0,5.629,1.057,7.178-9.442Z" transform="translate(-149.26 -272.814)" fill="#221b97"/><path d="M200,436.652s-6.156-3.5-9.745,6.534c0,0,5.676,2.885,10.323-4.967Z" transform="translate(-133.815 -262.526)" fill="#221b97"/><path d="M188.028,415.869s-6.3-3.739-9.668,6.06c0,0,6.536,2.651,10.222-4.57Z" transform="translate(-125.92 -251.068)" fill="#221b97"/><path d="M178.749,394.888s-6.176-7.342-10.709.641c0,0,6.267,5.979,11.032,1.048Z" transform="translate(-119.068 -238.255)" fill="#221b97"/><path d="M171.923,371.44s-6.217-7.514-10.7.9c0,0,6.912,6.073,10.965.718Z" transform="translate(-114.54 -225.393)" fill="#221b97"/><path d="M168.633,345.13s-4.9-9.528-10.273-7.071c0,0,5.088,10.1,10.286,9.37Z" transform="translate(-112.641 -208.556)" fill="#221b97"/><path d="M165.655,322.272s-5.01-12.066-9.345-9.7c0,0,3.622,9.284,9.52,11.763Z" transform="translate(-111.28 -194.63)" fill="#221b97"/><path d="M163.386,298.809s-5.061-9.438-9.506-8.024c0,0,4.19,9.618,10.051,10.806Z" transform="translate(-109.667 -182.772)" fill="#221b97"/><path d="M166.353,274.006s-4.016-10.675-7.033-10.616c0,0,2.087,10.7,6.835,12.454Z" transform="translate(-113.279 -167.826)" fill="#221b97"/><path d="M162.364,252.775s-4.436-10.792-7.534-10.657c0,0,2.379,9.3,7.423,11.632Z" transform="translate(-110.297 -156.16)" fill="#221b97"/><path d="M162.714,228.039s-3.344-8.95-5.924-9.849c0,0,1.858,11.018,5.652,12.282Z" transform="translate(-111.599 -143.037)" fill="#221b97"/><path d="M153.379,203.125,146.09,189.38s2.161,13.827,8.371,16.383Z" transform="translate(-104.494 -127.236)" fill="#221b97"/><path d="M135.539,176.51s-8.2-7.013-8.539-8.2c0,0,4.368,10.2,11.983,11.641Z" transform="translate(-91.819 -115.681)" fill="#221b97"/><path d="M127.235,165.445s-9.53-11.4-11.875-11.266c0,0,7.594.072,12.1,10.625Z" transform="translate(-84.091 -107.93)" fill="#221b97"/><path d="M157.92,207.26l-.336.077c-2.245-18.085-5.071-28.692-7.954-29.875l.1-.452C152.779,178.256,155.622,188.71,157.92,207.26Z" transform="translate(-106.845 -120.452)" fill="#444053"/><path d="M177.2,285.639l-.5.081c-.155-1.689-.289-3.423-.393-5.148-.911-15.014-2.053-28.787-3.33-39.091l.279-.5c1.28,10.323,2.645,24.5,3.559,39.538C176.912,282.234,177.043,283.955,177.2,285.639Z" transform="translate(-122.342 -155.536)" fill="#444053"/><path d="M225.405,418.613c-.091-.05-9.15-4.936-18.761-17.209a101.111,101.111,0,0,1-14.06-24.7c-4.607-11.474-7.621-25.716-8.895-39.633l.538.307c2.856,31.239,14.087,52.119,22.85,63.34,9.516,12.165,18.482,17,18.566,17.046Z" transform="translate(-129.459 -208.236)" fill="#444053"/><g transform="translate(74.668 2.714)" opacity="0.7"><path d="M320.84,435.631a6.253,6.253,0,0,1,7.057,1.612s-1.6,2.348-5.884.515Z" transform="translate(-295.19 -264.743)" fill="#221b97"/><path d="M317.466,436.23s-2.13,5-.232,9.609c0,0,2.016-1.639,1.549-7.64Z" transform="translate(-292.273 -265.333)" fill="#221b97"/><path d="M309.75,418.857s1.176-4.479,8.552-.176a4.326,4.326,0,0,1-3.535,3.382C311.786,422.479,310.792,420.858,309.75,418.857Z" transform="translate(-287.827 -254.684)" fill="#221b97"/><path d="M302.941,420.89s-3.528.226-2.581,10.959c0,0,2.275.135,3.428-3.581S304.07,422.8,302.941,420.89Z" transform="translate(-281.486 -256.92)" fill="#221b97"/><path d="M299.3,396.89s1.072-7.676,8.767-4.064c0,0-.81,7.013-7.746,6.376Z" transform="translate(-280.889 -240.998)" fill="#221b97"/><path d="M288.94,374.428s2.789-8.128,10.128-2.745c0,0-1.452,7.383-9.258,5.247Z" transform="translate(-274.01 -228.923)" fill="#221b97"/><path d="M282.9,352.414s3.478-7.676,10.753-2.344c0,0-3.36,6.8-10.541,4.064Z" transform="translate(-270 -217.046)" fill="#221b97"/><path d="M277.31,330.2s3.495-7.984,10.481-2.669c0,0-4.15,7.279-10.279,4.317Z" transform="translate(-266.288 -204.718)" fill="#221b97"/><path d="M275.27,307.843s3.475-10.052,10.007-5.175c0,0-3.962,8.851-9.8,6.9Z" transform="translate(-264.934 -191.35)" fill="#221b97"/><path d="M274.69,284.782s3.76-10.038,10.215-4.376c0,0-4.8,9.031-10.017,6.024Z" transform="translate(-264.548 -178.923)" fill="#221b97"/><path d="M276.16,261.4s4.7-9.69,10.135-7.415c0,0-4.9,10.264-10.108,9.713Z" transform="translate(-265.525 -165.195)" fill="#221b97"/><path d="M278.522,238.749s5.377-11.772,9.641-9.167c0,0-3.911,9.072-9.883,11.217Z" transform="translate(-266.932 -151.793)" fill="#221b97"/><path d="M282.987,215.826s4.778-9.7,9.261-8.534c0,0-3.9,9.839-9.718,11.339Z" transform="translate(-269.754 -139.72)" fill="#221b97"/><path d="M288.134,193.28s5.427-9.483,8.384-8.661c0,0-3.538,9.988-8.448,10.517Z" transform="translate(-273.432 -127.311)" fill="#221b97"/><path d="M292.71,169.995s4.348-10.837,7.447-10.765c0,0-2.305,9.334-7.329,11.741Z" transform="translate(-276.513 -113.414)" fill="#221b97"/><path d="M296.7,144.391s3.982-8.462,6.617-9.031c0,0-2.655,10.72-6.526,11.474Z" transform="translate(-279.162 -100.324)" fill="#221b97"/><path d="M298.255,117.026,301.1,100.58S303.02,114.465,298,120Z" transform="translate(-280.026 -81.249)" fill="#221b97"/><path d="M295.571,81.428s-.776-13.041-1.4-14c0,0,4.657,9.97,2.057,19.679Z" transform="translate(-277.483 -63.068)" fill="#221b97"/><path d="M284.209,402.257s-5.377-3-7.329,7.64c0,0,4.809,2.926,8.209-5.225Z" transform="translate(-266.003 -246.487)" fill="#221b97"/><path d="M272.352,378.942s-6.428-2.362-8.082,8.652c0,0,5.141,3.26,8.945-6.146Z" transform="translate(-257.63 -233.797)" fill="#221b97"/><path d="M261.053,356.617s-5.1-5.8-10.753,2.344c0,0,4.778,5.026,10.958-.623Z" transform="translate(-248.354 -220.571)" fill="#221b97"/><path d="M255.992,333.039s-5.2-6.087-10.572,1.919c0,0,5.652,5.148,10.77-.271Z" transform="translate(-245.114 -207.524)" fill="#221b97"/><path d="M254.88,309.57s-4.274-9.483-10.37-3.676c0,0,4.661,8.218,10.3,5.419Z" transform="translate(-244.51 -192.819)" fill="#221b97"/><path d="M255.227,285.2s-4.274-9.659-10.417-3.409c0,0,5.256,8.58,10.306,5.071Z" transform="translate(-244.709 -179.479)" fill="#221b97"/><path d="M261.81,257.464s-2.564-11.05-8.24-10.837c0,0,2.621,11.677,7.746,13.059Z" transform="translate(-250.526 -161.345)" fill="#221b97"/><path d="M266,234.512s-2.11-13.524-6.771-13c0,0,1.4,10.314,6.485,15.041Z" transform="translate(-254.284 -147.565)" fill="#221b97"/><path d="M270.752,211.285s-2.742-11.036-7.3-11.465c0,0,1.872,10.86,7.2,14.337Z" transform="translate(-257.086 -135.676)" fill="#221b97"/><path d="M281.191,188.066s-1.472-11.795-4.368-12.946c0,0-.373,11.05,3.77,14.626Z" transform="translate(-265.959 -122.13)" fill="#221b97"/><path d="M283.722,166.666s-1.845-12.079-4.832-13.186c0,0,.212,9.83,4.513,14.071Z" transform="translate(-267.337 -110.261)" fill="#221b97"/><path d="M291.236,143.022s-1.21-9.88-3.475-11.772c0,0-.672,11.262,2.688,14Z" transform="translate(-273.191 -98.069)" fill="#221b97"/><path d="M290,116.519l-3.918-16.039s-1.008,14.062,4.368,18.988Z" transform="translate(-272.062 -81.194)" fill="#221b97"/><path d="M280.611,85.974s-6.294-9.984-6.341-11.244c0,0,1.925,11.483,8.861,15.9Z" transform="translate(-264.27 -67.072)" fill="#221b97"/><path d="M276.214,73.281s-6.576-14.7-8.844-15.511c0,0,7.231,3.111,9.18,14.974Z" transform="translate(-259.688 -57.77)" fill="#221b97"/><path d="M294.327,121.967l-.336-.063c1.858-18.157,1.512-29.419-.981-31.7l.192-.375C295.846,92.255,296.233,103.368,294.327,121.967Z" transform="translate(-276.712 -75.353)" fill="#444053"/><path d="M278.141,202.3l-.5-.122c.229-1.675.484-3.382.766-5.076,2.456-14.7,4.415-28.3,5.474-38.649l.38-.37c-1.062,10.386-2.9,24.452-5.356,39.173C278.621,198.91,278.366,200.608,278.141,202.3Z" transform="translate(-266.507 -112.784)" fill="#444053"/><path d="M296.906,347.239c-.074-.081-7.641-8.367-14.113-23.933a121.924,121.924,0,0,1-7.951-29.2c-1.858-12.8-1.586-27.6.282-41.394l.444.506c-4.184,30.968,1.915,55.4,7.809,69.617,6.385,15.416,13.872,23.617,13.949,23.7Z" transform="translate(-263.81 -164.683)" fill="#444053"/></g><path d="M1011.619,805.84s-14.208-1.151-12.531,12.228c0,0-.336,2.362,1.26,3.436,0,0,.027-.993,1.458-.655a4.867,4.867,0,0,0,1.542.1,2.869,2.869,0,0,0,1.889-1.048h0s3.992-2.217,5.545-10.986a9.447,9.447,0,0,0,1.106-2.407l-2.4,1.355a7.581,7.581,0,0,1,.175,4.254s-.077-4.168-.538-4.064c-.094.023-1.247.808-1.247.808s1.411,4.064.336,6.99c0,0,.4-4.99-.786-6.7l-1.68,1.328s1.647,4.181.531,7.591c0,0,.286-5.234-.887-7.27l-1.529,1.6s1.549,4.123.6,6.95c0,0-.124-6.091-.934-6.552a11.2,11.2,0,0,0-1.542,2.258s1.058,2.989.4,4.57c0,0-.4-4.064-.736-4.064a15.652,15.652,0,0,0-1.472,4.516,12.343,12.343,0,0,1,1.149-4.786,3.783,3.783,0,0,0-2.04,1.418,2.434,2.434,0,0,1,2.352-2.068,12.262,12.262,0,0,1,1.4-2.163,6.669,6.669,0,0,0-3.458.537s1.149-1.806,3.851-.98l1.509-1.657s-2.833-.519-4.032.054c0,0,1.381-1.585,4.439-.429l1.643-1.319a11.3,11.3,0,0,0-3.851-.452s1.519-1.1,4.335.09l1.176-.709s-1.771-.452-2.288-.542-.544-.266-.544-.266a4.69,4.69,0,0,1,3.32.5A13.463,13.463,0,0,0,1011.619,805.84Z" transform="translate(-670.764 -465.314)" fill="#221b97"/><ellipse cx="10.054" cy="2.285" rx="10.054" ry="2.285" transform="translate(321.015 355.07)" fill="#221b97" opacity="0.1"/><path d="M1103.652,727.783s-8.008-.646-7.057,6.9a2.079,2.079,0,0,0,.709,1.937s.017-.56.823-.37a2.673,2.673,0,0,0,.87.059,1.6,1.6,0,0,0,1.062-.592h0s2.251-1.251,3.128-6.2a5.262,5.262,0,0,0,.622-1.355l-1.344.777a4.284,4.284,0,0,1,.1,2.4s-.044-2.353-.3-2.294a7.988,7.988,0,0,0-.7.452,7.069,7.069,0,0,1,.195,3.942s.229-2.813-.444-3.775l-.951.745a7.376,7.376,0,0,1,.3,4.281s.161-2.949-.5-4.1l-.86.9a7.2,7.2,0,0,1,.336,3.92s-.071-3.432-.528-3.694a6.85,6.85,0,0,0-.87,1.26,4.789,4.789,0,0,1,.228,2.578,10.108,10.108,0,0,0-.413-2.3,9.016,9.016,0,0,0-.83,2.556,6.909,6.909,0,0,1,.649-2.709,2.143,2.143,0,0,0-1.153.8,1.379,1.379,0,0,1,1.344-1.165,6.881,6.881,0,0,1,.786-1.219,3.755,3.755,0,0,0-1.949.3,1.845,1.845,0,0,1,2.171-.555l.854-.93a5.256,5.256,0,0,0-2.275.032s.78-.9,2.5-.244l.927-.745a6.384,6.384,0,0,0-2.174-.253,2.559,2.559,0,0,1,2.443.054l.672-.4s-1.008-.262-1.291-.3-.309-.154-.309-.154a2.656,2.656,0,0,1,1.875.28A7.2,7.2,0,0,0,1103.652,727.783Z" transform="translate(-735.545 -422.511)" fill="#221b97"/><ellipse cx="5.669" cy="1.287" rx="5.669" ry="1.287" transform="translate(356.924 313.477)" fill="#221b97" opacity="0.1"/><path d="M960.023,742.279s-9.671-.786-8.529,8.322a2.508,2.508,0,0,0,.857,2.339s0-.673.991-.452a3.453,3.453,0,0,0,1.052.072,1.964,1.964,0,0,0,1.284-.714h0s2.719-1.508,3.777-7.482a6.285,6.285,0,0,0,.749-1.635l-1.63.935a5.168,5.168,0,0,1,.118,2.9s-.05-2.84-.366-2.773a9.771,9.771,0,0,0-.847.546s.958,2.759.235,4.759c0,0,.276-3.4-.534-4.561l-1.149.9a8.909,8.909,0,0,1,.359,5.17s.195-3.563-.6-4.967l-1.042,1.088s1.055,2.8.413,4.732c0,0-.084-4.145-.638-4.461a8.031,8.031,0,0,0-1.048,1.522s.719,2.037.272,3.111c0,0-.272-2.759-.5-2.773a11.038,11.038,0,0,0-1.008,3.084,8.344,8.344,0,0,1,.783-3.26,2.588,2.588,0,0,0-1.388.966,1.66,1.66,0,0,1,1.613-1.409,8.308,8.308,0,0,1,.951-1.472,4.538,4.538,0,0,0-2.352.366,2.214,2.214,0,0,1,2.618-.668l1.028-1.124a6.322,6.322,0,0,0-2.745.036s.941-1.079,3.024-.294l1.119-.9a7.643,7.643,0,0,0-2.624-.307,3.1,3.1,0,0,1,2.95.063l.8-.443s-1.2-.316-1.556-.366-.37-.181-.37-.181a3.2,3.2,0,0,1,2.261.339A9.121,9.121,0,0,0,960.023,742.279Z" transform="translate(-639.193 -430.46)" fill="#221b97"/><ellipse cx="6.845" cy="1.553" rx="6.845" ry="1.553" transform="translate(307.325 321.722)" fill="#221b97" opacity="0.1"/><path d="M390.258,516.826l-33.708,17.525-49.269,25.59c-1.858-4.638-4.6-10.982-7.994-18.514C287.62,515.44,268.311,475.021,251.126,439.5c-19.369-40.022-36.036-73.816-36.036-73.816l12.067-4.7,98.566-38.414Z" transform="translate(-150.308 -200.283)" opacity="0.1"/><path d="M392.258,509.826l-33.708,17.525-49.269,25.59c-1.858-4.638-4.6-10.982-7.994-18.514C289.62,508.44,270.311,468.021,253.126,432.5c-19.369-40.022-36.036-73.816-36.036-73.816l12.067-4.7,98.566-38.414Z" transform="translate(-151.636 -196.444)" fill="#fff"/><path d="M416.1,509.826l-33.708,17.525a191.041,191.041,0,0,1-57.264,7.076c-11.667-25.987-30.976-66.406-48.161-101.926L253,353.984l98.566-38.414Z" transform="translate(-175.479 -196.444)" opacity="0.1"/><path d="M431.884,475.452s-52.368,41.625-130.549,32.232L239,303.494l29.87-6.9L372.127,272.77l58.588,198.736Z" transform="translate(-166.183 -172.971)" fill="#221b97"/><path d="M489.761,471.506a184.912,184.912,0,0,1-40.949-1.562c-15.531-2.447-31.137-7.514-44.545-16.789a140.949,140.949,0,0,1-29.121-26.285C353.435,400.624,340,363.082,327.93,296.6L431.187,272.77Z" transform="translate(-225.23 -172.971)" opacity="0.1"/><path d="M514.329,387.866s-38.617,10.169-77.886,3.906c-15.531-2.461-31.154-7.514-44.545-16.789A140.951,140.951,0,0,1,362.778,348.7c-26.883-32.512-41.067-82.283-55.7-182.841,0,0,64.183,20.812,127.6-24.777C434.676,141.08,456.064,320.471,514.329,387.866Z" transform="translate(-211.386 -100.747)" fill="#fff"/><path d="M546.5,620.483c-15.531-2.461-31.154-7.514-44.545-16.789a140.952,140.952,0,0,1-29.121-26.285C495.711,574.911,499,558.1,499,558.1,515.963,594.279,546.5,620.483,546.5,620.483Z" transform="translate(-321.438 -329.457)" opacity="0.1"/><path d="M405.85,254.538s34.477,5.288,66.747-19.078L474.808,245s-30.872,20.686-68.958,20.686Z" transform="translate(-276.966 -152.508)" fill="#221b97" opacity="0.3"/><path d="M405.85,347.388s34.276-3.716,72.432-28.5l1.29,3.965S465.53,346.6,405.85,352.807Z" transform="translate(-276.966 -198.265)" opacity="0.3"/><path d="M417.94,388.073s34.276-3.716,72.432-28.493l1.29,3.965s-14.04,23.77-73.723,29.979Z" transform="translate(-284.993 -220.581)" opacity="0.3"/><path d="M429,431.923s34.276-3.716,72.432-28.493l1.29,3.965S488.663,431.151,429,437.374Z" transform="translate(-292.337 -244.63)" opacity="0.3"/><path d="M442.13,469.5s34.276-3.716,72.432-28.493l1.29,3.965s-14.04,23.761-73.723,29.984Z" transform="translate(-301.055 -265.24)" opacity="0.3"/><path d="M454.23,510.223s34.276-3.716,72.432-28.493l1.29,3.965s-14.043,23.761-73.723,29.979Z" transform="translate(-309.089 -287.573)" opacity="0.1"/><path d="M0,0,10.493-1.063,9.431,12.19-1.063,13.253Z" transform="translate(206.979 112.646) rotate(-18.8)" fill="#221b97" opacity="0.3"/><path d="M0,0,10.493-1.063,9.431,12.19-1.063,13.253Z" transform="translate(212.435 131.82) rotate(-18.8)" fill="#221b97" opacity="0.3"/><path d="M0,0,10.493-1.063,9.431,12.19-1.063,13.253Z" transform="translate(221.182 168.712) rotate(-18.8)" fill="#221b97" opacity="0.3"/><path d="M0,0,10.493-1.063,9.431,12.19-1.063,13.253Z" transform="translate(226.201 188.512) rotate(-18.8)" fill="#221b97" opacity="0.3"/><path d="M0,0,10.493-1.063,9.431,12.19-1.063,13.253Z" transform="translate(216.884 151.738) rotate(-18.8)" fill="#221b97" opacity="0.3"/><path d="M839.663,377.153l-.36-.452a15.094,15.094,0,0,1,1.8-.366s-3.182-15.47-8.549-20.632c-2.655-2.551-4.866-6.8-6.428-10.445a168.67,168.67,0,0,0-9.574-18.862l-.968-1.639-.417-.713a7.4,7.4,0,0,0,1.213-3.68.078.078,0,0,1,0-.027c0-.072,0-.145,0-.217a3.309,3.309,0,0,0-.067-.5l-.037.077c-.454-1.77-2.2-2.551-3.491-3.527-3.024-2.289-4.318-7.293-4.963-11.944-.5-3.612-.921-7.676-3.024-10-1.344-1.495-3.172-1.987-4.526-3.472-1.284-1.409-2-3.545-2.806-5.509a21.278,21.278,0,0,0-5.461-8.277c-2.342-1.955-5.316-2.709-7.887-1.4-.985.506-1.878,1.291-2.853,1.838-2.419,1.355-5.192,1.174-7.588,2.605-2.95,1.761-4.869,5.654-6.623,9.347a50.333,50.333,0,0,0-3.142,7.518v-.293a13.976,13.976,0,0,0-.625,3.911,7.809,7.809,0,0,0,.138,1.7,4.911,4.911,0,0,0,2.729,3.5q.111.862.3,1.7c1.179,5.214,4.177,9.328,8.031,11.023.111.054.225.09.336.135a4.1,4.1,0,0,0,.4.993c1.072,1.806,3.223,1.291,4.62-.023.057-.05.111-.113.165-.167q.014.384.061.763c.03.217.054.452.087.646,1.26,9.126,4.486,14.052,4.486,14.052s.3.605.786,1.608a24.767,24.767,0,0,0,3.431,13.167c-1.7,1.323-5.377,3.915-7.648,3.7,0,0-8.347,1.449-9.315.723-.134-.1-.262.036-.383.343-2.3-1.883-9.648-7.311-10.276-.343-.568,6.322,6.129,7.13,9.318,7.162-.144,1.851-.225,3.332-.225,3.332l13.714-1.26,7.141-1.413a10.342,10.342,0,0,1-2.55,3.265s-6.455,7.022-7.571,7.085c-.158,0-.208.212-.185.551-2.715,0-11.16.528-8.818,6.85,2.127,5.73,8.115,1.766,10.824-.424.638,1.666,1.183,2.971,1.183,2.971l11.066-10.589,2.4-2.709a6.647,6.647,0,0,0,2.383-.619.46.46,0,0,0,.034.117,7.876,7.876,0,0,1,.192,1.021c.672,5.188-1.586,17.29-1.586,17.29s-4.967,17.019-2.581,19.34.622,12.115.622,12.115a18.928,18.928,0,0,0,1.432,2.655h0a7.263,7.263,0,0,0,.837,1.07q-.166.609-.276,1.242a13.391,13.391,0,0,0,.393,6.25c1.64,5.346.642,13.1.642,13.1L796.4,471.633c-1.546-.316-3.542-.578-4.284,0-1.139.862-.766,5.211,1.878,7.08a6.2,6.2,0,0,1-2.722,1.684c-2.352.722-4.005,1.183-5.094,1.463-.071,0-5.645-1.653-7.077-.56s-.743,7.153,3.33,8.638c3.985,1.45,18.848,3.576,23.129,2.709l.272-.063c3.639-.966.444-7.392.04-8.173-.027-.262-.05-.537-.077-.835-.057-.668-.108-1.436-.144-2.258,4.059.5,8.065.745,9.9.375a.827.827,0,0,0,.242-.059c3.223-.858.4-6.539.037-7.225q-.024-.262-.05-.555v-.05c0-.131-.024-.271-.034-.406a2.335,2.335,0,0,0-.027-.352c-.027-.122,0-.217-.023-.33q-.02-.334-.04-.691v-.294c0-.181-.017-.361-.023-.546v-.3c0-.271,0-.551-.02-.831v-2.208c0-.3.02-.614.034-.926l.02-.334c0-.23.027-.452.044-.686a1.442,1.442,0,0,1,.027-.339c.027-.316.057-.632.091-.953a2.737,2.737,0,0,1,.034-.284c.03-.239.06-.483.094-.727a2.311,2.311,0,0,1,.054-.361q.061-.393.131-.786a1.219,1.219,0,0,1,.037-.217c.061-.316.128-.628.2-.939.023-.108.05-.217.077-.325.057-.235.118-.452.181-.7l.081-.289c.091-.307.188-.61.289-.9.027-.077.057-.154.087-.23.084-.235.175-.452.269-.7l.114-.266c.128-.289.259-.578.4-.853,3.7-7.08,4.671-20.736,4.58-23.707s.44-9.135,1.1-10.047a83.683,83.683,0,0,0,4.567-9.076c.279-.668.521-1.3.712-1.856,1.1-.51,1.821-.9,1.821-.9h0a27.775,27.775,0,0,1-.551-5.821c.027-3.843.813-8.9,4.059-13.014a24.829,24.829,0,0,0,5.524-14.4v-.429C839.68,377.361,839.663,377.153,839.663,377.153Z" transform="translate(-512.905 -174.145)" fill="url(#a)"/><path d="M897.806,576.7a84.064,84.064,0,0,1-4.368,8.972c-.632.9-1.139,7-1.052,9.934s-.837,16.441-4.368,23.44-1.717,19.1-1.717,19.1l-5.635,2.655h-6.771l-4.664-1.874L868,634.368s1.64-.339,5.713-1.639c2.322-.635,4.045-3.269,4.217-6.444l2.86-26.836s.843-6.773-.548-11.461a12.207,12.207,0,0,1,.457-8.173l.091-.19a58.531,58.531,0,0,1,8.908-7.613c3.982-2.583,8.021-3.811,9.167.772C899.013,573.375,898.529,574.9,897.806,576.7Z" transform="translate(-583.817 -335.824)" fill="#a5636d"/><path d="M897.806,576.7a84.064,84.064,0,0,1-4.368,8.972c-.632.9-1.139,7-1.052,9.934s-.837,16.441-4.368,23.44c-2.487,4.936-2.322,12.4-2.016,16.374.131,1.666.292,2.709.292,2.709l-5.635,2.655h-6.764l-4.664-1.86L868,634.368s.41-.086,1.344-.33,2.352-.659,4.389-1.31c2.314-.646,4.027-3.277,4.2-6.444l2.86-26.836s.843-6.773-.548-11.461a12.207,12.207,0,0,1,.457-8.173l.091-.19a58.531,58.531,0,0,1,8.908-7.613c3.982-2.583,8.021-3.811,9.167.772C899.013,573.375,898.529,574.9,897.806,576.7Z" transform="translate(-583.817 -335.824)" opacity="0.05"/><path d="M886.3,716.284l-5.635,2.655h-6.771l-4.664-1.878L868,712.5s.41-.086,1.344-.33c-.137,1.715.7,3.3,1.952,3.685l2.648.122c.373,0,.749.027,1.119.027a26.071,26.071,0,0,0,10.948-2.443C886.146,715.227,886.3,716.284,886.3,716.284Z" transform="translate(-583.817 -413.956)" opacity="0.1"/><path d="M863.761,715.72l-2.651-.122s-2.473-.7-1.868-4.475c0,0-4.772-1.454-5.991-.492s-.632,6.268,2.816,7.568c3.36,1.269,15.948,3.134,19.567,2.371l.232-.054c3.28-.9,0-7.225,0-7.225h0a26.05,26.05,0,0,1-12.1,2.429Z" transform="translate(-573.638 -412.931)" fill="#bebed0"/><path d="M866.911,579.388c-.178.479-.37.975-.588,1.495a90.707,90.707,0,0,1-4.8,9.844c-.712,1.021-1.28,7.9-1.19,11.226s-.944,18.55-4.93,26.452c-2.04,4.064-2.5,9.6-2.466,14.048q.015,2.263.2,4.516c.148,1.838.336,2.985.336,2.985l-6.358,2.994h-7.652l-5.266-2.1-1.378-5.166s.46-.1,1.5-.375,2.648-.736,4.953-1.468c2.613-.726,4.551-3.694,4.748-7.27l3.223-30.286s.951-7.654-.615-12.937a13.753,13.753,0,0,1-.376-6.182,11.932,11.932,0,0,1,1.008-3.26s1.23-1.3,3.085-3.021c.82-.759,1.771-1.6,2.792-2.447,4.489-3.734,10.394-7.546,13.223-4.768a5.184,5.184,0,0,1,1.3,2.524A8.118,8.118,0,0,1,866.911,579.388Z" transform="translate(-560.459 -337.47)" fill="#a5636d"/><path d="M853.456,738.131l-6.358,2.994h-7.635l-5.266-2.1-1.378-5.166s.46-.1,1.5-.375a4.572,4.572,0,0,0,.894,3.337,2.6,2.6,0,0,0,1.9.957l2.409.1c.42,0,.843.032,1.263.032a29.518,29.518,0,0,0,12.359-2.764C853.285,736.984,853.456,738.131,853.456,738.131Z" transform="translate(-560.459 -425.643)" opacity="0.1"/><path d="M827.98,737.494l-2.406-.108a2.627,2.627,0,0,1-1.9-.957,4.916,4.916,0,0,1-.8-4.123s-5.377-1.639-6.764-.555-.709,7.076,3.179,8.543c3.807,1.431,18,3.536,22.088,2.678l.259-.063c3.7-1.021,0-8.164,0-8.164h0A29.3,29.3,0,0,1,827.98,737.494Z" transform="translate(-548.928 -424.491)" fill="#bebed0"/><path d="M909.061,576.714c-2.3,1.079-5.682,2.511-7.537,2.569a2.522,2.522,0,0,1-.575-.036h0c-1.3-.239-5.306.144-8.982.587-1.475.176-2.893.361-4.066.524-1.747.244-2.95.42-2.95.42v-1.531c.82-.759,1.771-1.6,2.792-2.447,4.489-3.734,10.393-7.546,13.223-4.768,3.982-2.583,8.021-3.811,9.167.772C910.267,573.386,909.783,574.908,909.061,576.714Z" transform="translate(-595.072 -335.835)" opacity="0.1"/><path d="M920.053,500.4a25.141,25.141,0,0,1-5.279,14.238c-5.833,7.654-3.36,18.645-3.36,18.645s-6.956,3.671-9.957,3.771a2.529,2.529,0,0,1-.575-.036c-1.8-.339-8.952.551-13.062,1.111-1.747.244-2.95.42-2.95.42V506.037l32.236-10.517,2.92,3.906A9.716,9.716,0,0,1,920.053,500.4Z" transform="translate(-595.019 -295.136)" fill="#5c5c8e"/><path d="M955.5,576.89" transform="translate(-641.914 -339.763)" fill="none"/><g transform="translate(289.865 200.398)" opacity="0.1"><path d="M885.441,588.487l-.531.077v.343s1.2-.176,2.95-.42c2.95-.4,7.457-.966,10.437-1.133C896.234,587.1,889.42,587.945,885.441,588.487Z" transform="translate(-884.91 -545.874)"/><path d="M949.792,499.46l-2.92-3.91-1.946.655,2.446,3.274a9.681,9.681,0,0,1,0,.98,25.152,25.152,0,0,1-5.279,14.238c-5.833,7.649-3.36,18.645-3.36,18.645s-5.756,3.034-9.053,3.662a6.222,6.222,0,0,1,.941.068,2.51,2.51,0,0,0,.575.041c3-.1,9.957-3.771,9.957-3.771s-2.487-11,3.36-18.645a25.151,25.151,0,0,0,5.279-14.238A9.72,9.72,0,0,0,949.792,499.46Z" transform="translate(-914.636 -495.55)"/></g><path d="M777.136,450.224s-9.745-9.085-10.461-.9,10.461,7.013,10.461,7.013Z" transform="translate(-516.519 -267.925)" fill="#a5636d"/><path d="M811.159,442.13s-5.272,4.687-8.189,4.4c0,0-7.971,1.436-8.9.718s-1.492,10.386-1.492,10.386l13.105-1.242,8.4-1.725s4.2-3.441,4.2-6.408S811.159,442.13,811.159,442.13Z" transform="translate(-533.741 -265.855)" fill="#f7cddd"/><path d="M811.159,442.13s-5.272,4.687-8.189,4.4c0,0-7.971,1.436-8.9.718s-1.492,10.386-1.492,10.386l13.105-1.242,8.4-1.725s4.2-3.441,4.2-6.408S811.159,442.13,811.159,442.13Z" transform="translate(-533.741 -265.855)" opacity="0.05"/><path d="M805.921,494.472s-11.852-.659-9.2,6.773,11.637-1.589,11.637-1.589Z" transform="translate(-536.235 -294.553)" fill="#a5636d"/><path d="M843.775,429.1s-9.607-9.659-8.253-21.422,8.253,9,8.253,9Z" transform="translate(-562.166 -244.981)" fill="#5c5c8e"/><path d="M804.445,321.588a19.63,19.63,0,0,1-3.417,11.339,13.174,13.174,0,0,1-1.754,2.009,11.4,11.4,0,0,1-3.985,2.475,9.153,9.153,0,0,1-2.987.5,9.159,9.159,0,0,1-4-.9c-5.838-2.738-9.213-10.933-7.839-19.034s7.058-13.522,13.2-12.59,10.787,7.917,10.783,16.226Z" transform="translate(-525.491 -190.799)" fill="#a5636d"/><path d="M912.026,500.4c-1.089.271-2.433.759-2.433,1.517,0,1.278-15.182,8.164-15.182,8.164s.568,1.779-.948,4.841-13.855,20.654-13.855,20.654l.04.524.158,2.027.753,9.69s-4.745-2.294-6.264-2.041c-.491.086-1.008-.339-1.516-.948a11.932,11.932,0,0,1,1.008-3.26s1.23-1.3,3.085-3.021V506.037l32.236-10.517,2.92,3.906A9.7,9.7,0,0,1,912.026,500.4Z" transform="translate(-586.991 -295.136)" opacity="0.1"/><path d="M884.514,421.529s-3.8.506-3.8,1.784-15.182,8.164-15.182,8.164.568,1.779-.948,4.841-13.855,20.659-13.855,20.659l.951,12.237s-4.745-2.294-6.264-2.041c-.672.113-1.428-.727-2.05-1.707A18.8,18.8,0,0,1,842,462.842s1.71-9.695-.568-11.989S843.9,431.73,843.9,431.73s2.144-11.966,1.512-17.1a7.966,7.966,0,0,0-.181-1.012.46.46,0,0,0-.027-.113c-1.344-4.9-15.915-46.059-15.915-46.059q.014-1.751.181-3.491c.03-.321.071-.655.114-.993q.111-.913.3-1.806.116-.571.276-1.124c.45-1.553,1.139-2.75,2.167-2.777a5.9,5.9,0,0,1,3.811-2.154c1.956-.343,4.748,0,8.529,2.154,8.915,5.094,11.005,5.355,11.005,5.355l4.479,7.9.921,1.621a168.779,168.779,0,0,1,9.143,18.649c1.492,3.612,3.606,7.807,6.139,10.332C881.476,406.23,884.514,421.529,884.514,421.529Z" transform="translate(-558.115 -218.061)" fill="#f7cddd"/><path d="M894.65,437.05s12.669,4.209,17.578,14.82Z" transform="translate(-601.512 -263.069)" opacity="0.1"/><path d="M906.3,478.34s2.4,21.616,1.731,23.242S906.3,478.34,906.3,478.34Z" transform="translate(-609.247 -285.714)" opacity="0.1"/><path d="M882.131,496.274c-.921,1.621-4.661,14.152-4.661,14.152l1.079,21.043.951,12.237s-4.741-2.294-6.26-2.041c-.672.113-1.432-.727-2.05-1.707.985-7.166,3.092-22.163,3.471-22.452.5-.384,3.065-12.431,3.2-15.8s3.7-10.892,3.7-10.892S883.059,494.653,882.131,496.274Z" transform="translate(-585.936 -292.553)" opacity="0.1"/><path d="M850.732,408.116c-.235.953-.6,6.5-.6,6.5-.262,4.886-3.024,6.484-4.721,7a7.966,7.966,0,0,0-.181-1.012c-1.139-4.33-15.941-46.154-15.941-46.154a36.47,36.47,0,0,1,.591-6.295c3.223-1.273,8.324.686,8.324.686,1.475-.262,6.287,12.594,6.287,12.594s3.206,9.844,3.559,11.185,0,3.54.141,4.308,1.64,1.427,1.852,2.484.074,3.161.215,3.536A20.747,20.747,0,0,1,850.732,408.116Z" transform="translate(-558.115 -225.049)" opacity="0.1"/><path d="M843.449,406.407c-.235.957-.6,6.5-.6,6.5-.215,4.064-2.164,5.87-3.791,6.642a6.208,6.208,0,0,1-2.278.61l-2.288,2.673-10.568,10.454s-3.938-9.785-2.87-9.839,7.232-7.008,7.232-7.008c1.885-1.355,3.774-5.87,4.651-8.191q-.076-.415-.114-.84c-.38-4.33-8.35-20.912-8.35-20.912s-3.081-4.872-4.281-13.9c-.034-.208-.057-.42-.087-.637-.034-.281-.054-.564-.06-.849-.144-3.473,1.737-4.737,3.969-5.035h0a11.894,11.894,0,0,1,3.495.145,19.694,19.694,0,0,1,3.417.9c.954-.172,3.307,5.161,4.849,8.941h0c.83,2.05,1.428,3.649,1.428,3.649s3.206,9.848,3.559,11.185,0,3.545.141,4.308,1.64,1.431,1.852,2.488.074,3.161.215,3.536A20.8,20.8,0,0,1,843.449,406.407Z" transform="translate(-551.972 -224.108)" fill="#f7cddd"/><path d="M829.193,351.043c-2.016,2.768-5.272,2.777-7.887,1.355s-4.829-3.969-7.252-5.952c-1.573-1.291-3.239-2.348-4.788-3.68h0c-.229-.2-.45-.4-.672-.605-1.788-1.7-3.337-3.879-5.188-5.419a6.763,6.763,0,0,0-4.167-1.806,3.736,3.736,0,0,0-1.986.56,2.491,2.491,0,0,0-.336.221,9.343,9.343,0,0,0-1.68,1.693c-.524.632-1.025,1.3-1.576,1.9-.034-.208-.057-.42-.087-.637-.034-.281-.054-.564-.061-.849a9.771,9.771,0,0,1-1.263.086,9.159,9.159,0,0,1-4-.9.476.476,0,0,0-.03-.2c-.454-3.215-1.274-6.62-3.2-8.426-1.116-1.048-2.9-1.477-4.442-2.258-1.472-6.884.569-14.252,5.031-18.169s10.3-3.466,14.4,1.111,5.5,12.211,3.45,18.823c1.956-.343,4.748,0,8.529,2.154,8.915,5.094,11.005,5.355,11.005,5.355l4.479,7.9a7.979,7.979,0,0,0-1.082,3.134C826.306,348.555,827.849,350.04,829.193,351.043Z" transform="translate(-525.457 -190.807)" opacity="0.1"/><path d="M780.04,313.08c1.925,1.806,2.745,5.206,3.2,8.417a8.153,8.153,0,0,0,.733,2.854c1.008,1.779,3.078,1.278,4.412,0s2.386-3.215,3.874-4.118c1.976-1.2,4.3-.325,6.153,1.233s3.4,3.739,5.188,5.419c1.731,1.639,3.659,2.809,5.461,4.285,2.423,1.982,4.637,4.543,7.252,5.952s5.881,1.4,7.883-1.355c-1.344-1-2.887-2.484-2.782-4.633s1.966-3.752,1.841-5.956-2.053-3.066-3.438-4.15c-2.89-2.258-4.123-7.225-4.741-11.808-.481-3.585-.877-7.591-2.87-9.894-1.287-1.481-3.024-1.964-4.321-3.432-1.227-1.4-1.909-3.5-2.688-5.45a21.2,21.2,0,0,0-5.212-8.187c-2.235-1.937-5.077-2.709-7.531-1.382-.941.5-1.8,1.278-2.725,1.806-2.312,1.355-4.956,1.161-7.245,2.574-2.819,1.743-4.651,5.59-6.328,9.243-1.418,3.129-4.231,8.647-3.434,12.711C773.517,311.342,777.95,311.121,780.04,313.08Z" transform="translate(-520.465 -177.052)" fill="#4c3e42"/><g transform="translate(252.112 124.603)" opacity="0.1"><path d="M920.852,378.637a3.759,3.759,0,0,0-.064-.5,8.97,8.97,0,0,0-1.206,3.391,4.1,4.1,0,0,0,.054.872C920.2,381.188,920.933,380.046,920.852,378.637Z" transform="translate(-870.175 -355.363)" fill="#221b97"/><path d="M816.867,359.869c-2.614-1.409-4.825-3.969-7.248-5.952-1.8-1.477-3.733-2.646-5.464-4.285-1.788-1.7-3.337-3.879-5.188-5.419s-4.174-2.434-6.153-1.237c-1.489.9-2.537,2.822-3.875,4.123s-3.387,1.806-4.412,0a8.152,8.152,0,0,1-.733-2.854c-.454-3.211-1.277-6.611-3.2-8.417-2.094-1.964-6.526-1.743-7.329-5.87a8.572,8.572,0,0,1-.1-2.258,11.9,11.9,0,0,0-.467,5.306c.807,4.145,5.239,3.924,7.329,5.87,1.926,1.806,2.745,5.211,3.2,8.422a8.225,8.225,0,0,0,.729,2.854c1.008,1.779,3.078,1.278,4.415-.023s2.383-3.215,3.875-4.118c1.976-1.2,4.3-.321,6.153,1.237s3.4,3.739,5.188,5.419c1.731,1.644,3.659,2.809,5.461,4.285,2.423,1.987,4.637,4.547,7.252,5.956s5.881,1.4,7.883-1.355a9.986,9.986,0,0,1-1.468-1.305A6.405,6.405,0,0,1,816.867,359.869Z" transform="translate(-772.561 -327.7)" fill="#221b97"/></g><path d="M719.572,450.687l26.883-13.493a1.961,1.961,0,0,1,1.956.09,3.231,3.231,0,0,1,1.334,1.924h0c.494,1.778-.179,3.757-1.5,4.421l-26.883,13.5-5.76-.777Z" transform="translate(-482.629 -263.028)" fill="#5c5c8e"/><path d="M748.915,438.769h0c.494,1.779-.178,3.76-1.5,4.425L720.53,456.686,716.2,456.1l-.622.9,5.76.777,26.883-13.5c1.323-.663,2-2.643,1.5-4.421h0a3.4,3.4,0,0,0-1.045-1.716,4.35,4.35,0,0,1,.235.619Z" transform="translate(-482.616 -263.672)" fill="#fff" opacity="0.1"/><path d="M697.272,415.58l1.791,6.439-4.728-.637-1.035-.14,1.415-2.014Z" transform="translate(-460.329 -227.921)" fill="#efc8c4"/><path d="M717.025,475.42a1.314,1.314,0,0,1,.276.406.756.756,0,0,1,0,.628,1.117,1.117,0,0,1-.262.248,1.265,1.265,0,0,0-.383.872l-1.035-.14Z" transform="translate(-482.642 -284.112)" fill="#727a9c"/><path d="M648.025,297.254l-4.533-2.971a.865.865,0,0,1-.252-.984l.481-1.328a.637.637,0,0,1,.314-.375.42.42,0,0,1,.419.036l3.055,2,3.189-8.787c.133-.365.46-.518.733-.343l.988.65a.7.7,0,0,1,.279.421.964.964,0,0,1-.027.563l-3.911,10.779C648.625,297.281,648.3,297.432,648.025,297.254Z" transform="translate(-434.548 -179.365)" fill="#3acc6c"/><path d="M677.5,381.413l-4.533-2.971a.865.865,0,0,1-.252-.984l.481-1.328c.134-.366.463-.517.736-.339l3.051,2,3.186-8.8c.133-.365.46-.518.733-.343l.985.65a.7.7,0,0,1,.28.421.97.97,0,0,1-.024.563l-3.911,10.779c-.135.364-.463.515-.736.339Z" transform="translate(-454.115 -225.517)" fill="#3acc6c"/><path d="M664.262,339.92l-4.533-2.971a.87.87,0,0,1-.255-.984l.484-1.328a.637.637,0,0,1,.314-.375.42.42,0,0,1,.419.036l3.055,2,3.189-8.8c.133-.365.461-.517.733-.339l.988.646a.877.877,0,0,1,.252.989l-3.915,10.788c-.133.365-.461.517-.732.339Z" transform="translate(-445.327 -202.759)" fill="#3acc6c"/><path d="M690.3,419.424l-4.533-2.971a.865.865,0,0,1-.252-.984l.481-1.328c.133-.365.461-.517.733-.339l3.055,2,3.189-8.787c.134-.366.462-.519.736-.343l.984.65a.7.7,0,0,1,.279.421.964.964,0,0,1-.027.563l-3.908,10.779c-.135.364-.463.515-.736.339Z" transform="translate(-462.614 -246.368)" fill="#3acc6c"/><path d="M184.643,693.36s2,3.513-.921,8.814-5.333,9.781-4.368,13.1c0,0,4.409-9.849,7.994-9.984S188.588,699.284,184.643,693.36Z" transform="translate(-126.437 -403.64)" fill="#3acc6c"/><path d="M184.883,693.36a5.046,5.046,0,0,1,.41,1.1c3.5,5.527,5.377,10.684,2,10.837-3.135.117-6.9,7.649-7.793,9.551a4.388,4.388,0,0,0,.1.452s4.409-9.849,7.994-9.984S188.828,699.284,184.883,693.36Z" transform="translate(-126.677 -403.64)" opacity="0.1"/><path d="M205.67,702.31a5.762,5.762,0,0,1-.232,2.258,5.709,5.709,0,0,1-.229-2.258c0-1.255.128-.655.255-.655S205.67,701.073,205.67,702.31Z" transform="translate(-143.748 -408.11)" fill="#ffd037"/><path d="M207.254,705.49c-.806.592-1.512.953-1.573.8s.544-.75,1.344-1.355.487-.163.548,0S208.064,704.9,207.254,705.49Z" transform="translate(-144.058 -409.818)" fill="#ffd037"/><path d="M155.258,693.36s-2,3.513.924,8.814,5.33,9.781,4.368,13.1c0,0-4.405-9.849-7.994-9.984S151.313,699.284,155.258,693.36Z" transform="translate(-107.61 -403.64)" fill="#3acc6c"/><path d="M155.223,693.36a5.175,5.175,0,0,0-.407,1.1c-3.5,5.527-5.377,10.684-2,10.837,3.132.117,6.892,7.649,7.793,9.551a4.4,4.4,0,0,1-.108.452s-4.405-9.889-8-10.025S151.278,699.284,155.223,693.36Z" transform="translate(-107.575 -403.64)" opacity="0.1"/><path d="M153.05,702.31a5.8,5.8,0,0,0,.229,2.258,5.672,5.672,0,0,0,.232-2.258c0-1.255-.128-.655-.255-.655S153.05,701.073,153.05,702.31Z" transform="translate(-109.115 -408.11)" fill="#ffd037"/><path d="M148.287,705.49c.81.592,1.512.953,1.573.8s-.544-.75-1.344-1.355-.491-.163-.551,0S147.48,704.9,148.287,705.49Z" transform="translate(-105.629 -409.818)" fill="#ffd037"/><ellipse cx="20.898" cy="4.308" rx="20.898" ry="4.308" transform="translate(32.032 329.873)" fill="#221b97" opacity="0.1"/><path d="M169.292,729.384l-.1,1.1-.138,1.549-.06.646-.138,1.549-.064.646-.138,1.549-1.6,17.611c-.144,1.571-2.057,2.8-4.368,2.8h-8.3c-2.309,0-4.217-1.228-4.368-2.8l-1.6-17.611-.141-1.549-.057-.646-.144-1.549-.057-.646-.141-1.549-.1-1.1c-.077-.9.954-1.644,2.262-1.644h17C168.344,727.74,169.376,728.494,169.292,729.384Z" transform="translate(-105.608 -422.495)" fill="#65617d"/><path d="M147.121,682.05l-.141,1.549H125.948l-.138-1.549Z" transform="translate(-83.535 -374.064)" fill="#9d9cb5"/><path d="M147.315,686.91l-.141,1.549H126.541l-.141-1.549Z" transform="translate(-83.927 -376.729)" fill="#9d9cb5"/><path d="M147.5,691.77l-.141,1.549H127.131l-.141-1.549Z" transform="translate(-84.319 -379.395)" fill="#9d9cb5"/></g></svg>